<svg xmlns="http://www.w3.org/2000/svg" viewBox="0 0 1024 1024" width="1024" height="1024">
<rect width="100%" height="100%" fill="#F6EDE3"/>

        <path d="M389.61199999999997 282.4Q392.468 282.4 392.468 297.268Q392.468 312.13599999999997 389.61199999999997 312.13599999999997H358.868V331.288H379.364Q382.22 331.288 382.22 344.308Q382.22 357.328 379.532 357.328H358.868V397.816Q358.868 400.168 352.568 400.924Q346.268 401.68 342.068 401.68L334.172 401.344Q325.94 400.336 325.94 397.984V286.768Q325.94 284.08 327.03200000000004 283.24Q328.124 282.4 330.308 282.4Z" fill="#E86A54"/>
<path d="M442.028 399.832Q442.028 401.008 426.74 401.008Q411.452 400.672 411.452 399.664V343.888H406.916Q404.228 343.888 402.632 340.61199999999997Q401.036 337.336 401.036 332.464Q401.036 314.32 411.788 314.32Q419.348 314.32 424.38800000000003 318.94Q429.428 323.56 429.428 329.44Q432.956 322.552 438.92 318.43600000000004Q444.884 314.32 451.1 314.32Q460.844 314.32 462.86 319.36Q463.364 320.704 463.364 323.308Q463.364 325.912 461.768 332.63199999999995Q460.17199999999997 339.352 458.49199999999996 342.376Q456.812 345.4 456.476 345.4Q456.14 345.4 453.368 344.14Q450.596 342.88 448.412 342.88Q442.028 342.88 442.028 352.96Z" fill="#E86A54"/>
<path d="M535.268 395.464Q524.684 401.68 508.052 401.68Q491.42 401.68 479.996 390.34000000000003Q468.572 379.0 468.572 358.924Q468.572 338.848 479.576 326.584Q490.58 314.32 507.38 314.32Q524.1800000000001 314.32 533.336 322.88800000000003Q542.492 331.456 542.492 343.72Q542.492 370.936 511.244 370.936H499.652Q499.652 375.976 502.424 377.908Q505.196 379.84 510.572 379.84Q522.332 379.84 532.916 374.464Q533.0840000000001 374.296 534.428 376.816Q538.46 384.04 538.46 388.996Q538.46 393.952 535.268 395.464ZM514.268 346.912Q514.268 339.856 507.38 339.856Q504.188 339.856 501.91999999999996 341.788Q499.652 343.72 499.652 347.416V352.624H508.724Q514.268 352.624 514.268 346.912Z" fill="#E86A54"/>
<path d="M556.9399999999999 369.76Q570.548 377.992 578.444 377.992Q583.4839999999999 377.992 583.4839999999999 374.464Q583.4839999999999 371.944 574.7479999999999 367.912Q553.7479999999999 359.344 553.7479999999999 339.856Q553.7479999999999 327.424 562.8199999999999 320.87199999999996Q571.8919999999999 314.32 584.576 314.32Q597.26 314.32 606.0799999999999 317.00800000000004Q614.9 319.696 614.9 324.06399999999996Q614.9 327.76 611.288 333.808Q607.6759999999999 339.856 606.332 340.36Q599.108 336.328 590.708 336.328Q586.172 336.328 586.172 339.52Q586.172 341.536 587.9359999999999 342.964Q589.6999999999999 344.392 594.404 346.49199999999996Q599.108 348.592 602.2159999999999 350.272Q605.324 351.952 609.188 354.976Q617.252 361.36 617.252 371.608Q617.252 385.048 608.348 393.36400000000003Q599.444 401.68 581.468 401.68Q569.54 401.68 559.796 397.648Q550.052 393.616 550.052 386.56Q550.052 381.856 552.3199999999999 376.648Q554.588 371.44 556.9399999999999 369.76Z" fill="#E86A54"/>
<path d="M657.068 398.824Q657.068 400.336 643.04 400.336Q629.012 400.336 629.012 397.984V282.904Q629.012 281.728 634.22 281.22400000000005Q639.428 280.72 642.956 280.72Q657.068 280.72 657.068 283.744V317.344Q666.476 314.488 671.348 314.488Q684.116 314.488 691.508 321.29200000000003Q698.9 328.096 698.9 346.576V398.656Q698.9 400.168 685.796 400.168Q671.012 399.664 671.012 398.488V349.096Q671.012 340.864 665.636 340.864Q661.94 340.864 657.068 344.392Z" fill="#E86A54"/>
        <path d="M341.648 519.008Q344.84 521.528 352.652 525.896Q360.464 530.264 367.60400000000004 530.264Q374.744 530.264 374.744 524.72Q374.744 522.2 372.728 520.268Q370.712 518.336 365.336 515.816Q359.96 513.296 357.272 511.86800000000005Q354.584 510.44 350.132 507.164Q345.68 503.888 343.328 500.36Q336.608 490.784 336.608 476.0Q336.608 461.216 347.61199999999997 451.052Q358.616 440.888 376.424 440.888Q388.52 440.888 398.76800000000003 443.49199999999996Q409.016 446.096 409.352 450.296Q409.352 450.8 409.352 451.304Q409.352 457.18399999999997 405.65599999999995 466.17199999999997Q401.96 475.15999999999997 400.448 476.168Q389.696 470.624 381.212 470.624Q372.728 470.624 372.728 476.672Q372.728 480.368 378.944 483.224Q380.288 483.896 382.808 485.072Q385.328 486.248 388.604 487.844Q391.88 489.44 395.65999999999997 491.876Q399.44 494.312 403.808 498.344Q412.712 506.744 412.712 520.52Q412.712 538.496 402.8 549.9200000000001Q392.88800000000003 561.344 372.224 561.68Q362.144 561.68 353.996 560.0Q345.848 558.32 339.8 553.4480000000001Q333.752 548.576 333.752 541.688Q333.752 534.8 336.272 527.996Q338.792 521.192 341.648 519.008Z" fill="#122033"/>
<path d="M464.288 558.992Q464.288 561.008 450.17600000000004 561.008Q433.37600000000003 560.336 433.37600000000003 558.824V499.352H424.80800000000005Q421.44800000000004 499.352 421.44800000000004 487.76Q421.44800000000004 484.736 422.03600000000006 480.368Q422.624 476.0 424.47200000000004 476.0H433.37600000000003V461.216Q433.37600000000003 457.856 447.572 457.856Q461.76800000000003 457.856 461.76800000000003 460.544V471.296L461.93600000000004 476.0H476.216Q479.072 476.0 479.072 487.76Q479.072 499.52 476.216 499.52H464.288Z" fill="#122033"/>
<path d="M498.05600000000004 499.016Q493.35200000000003 490.616 493.35200000000003 485.32399999999996Q493.35200000000003 480.032 496.208 478.52Q505.78400000000005 474.32 522.5 474.32Q539.216 474.32 546.104 482.132Q552.9920000000001 489.944 552.9920000000001 505.23199999999997V531.776H558.7040000000001Q561.5600000000001 531.776 563.1560000000001 535.136Q564.7520000000001 538.496 564.7520000000001 544.376Q564.7520000000001 550.256 561.8120000000001 555.968Q558.8720000000001 561.68 553.832 561.68Q544.76 561.68 539.216 556.808Q536.696 554.792 535.3520000000001 551.936Q527.624 561.68 511.32800000000003 561.68Q499.064 561.68 490.664 552.944Q482.264 544.208 482.264 532.28Q482.264 504.896 515.024 504.896H524.264V503.216Q524.264 498.848 522.836 497.58799999999997Q521.408 496.328 516.2 496.328Q509.81600000000003 496.328 498.05600000000004 499.016ZM511.49600000000004 529.928Q511.49600000000004 533.624 513.5120000000001 535.556Q515.528 537.488 518.636 537.488Q521.744 537.488 524.264 534.968V522.032H519.5600000000001Q511.49600000000004 522.032 511.49600000000004 529.928Z" fill="#122033"/>
<path d="M611.12 559.832Q611.12 561.008 595.832 561.008Q580.544 560.672 580.544 559.664V503.888H576.008Q573.32 503.888 571.724 500.61199999999997Q570.128 497.336 570.128 492.464Q570.128 474.32 580.88 474.32Q588.44 474.32 593.48 478.94Q598.52 483.56 598.52 489.44Q602.048 482.552 608.012 478.43600000000004Q613.976 474.32 620.192 474.32Q629.936 474.32 631.952 479.36Q632.456 480.704 632.456 483.308Q632.456 485.912 630.86 492.63199999999995Q629.264 499.352 627.5840000000001 502.376Q625.904 505.4 625.568 505.4Q625.2320000000001 505.4 622.46 504.14Q619.688 502.88 617.504 502.88Q611.12 502.88 611.12 512.96Z" fill="#122033"/>
<path d="M679.4960000000001 558.992Q679.4960000000001 561.008 665.384 561.008Q648.5840000000001 560.336 648.5840000000001 558.824V499.352H640.0160000000001Q636.6560000000001 499.352 636.6560000000001 487.76Q636.6560000000001 484.736 637.244 480.368Q637.832 476.0 639.6800000000001 476.0H648.5840000000001V461.216Q648.5840000000001 457.856 662.78 457.856Q676.976 457.856 676.976 460.544V471.296L677.144 476.0H691.4240000000001Q694.2800000000001 476.0 694.2800000000001 487.76Q694.2800000000001 499.52 691.4240000000001 499.52H679.4960000000001Z" fill="#122033"/>
        <path d="M495.03999999999996 648.32Q494.71999999999997 648.32 494.304 647.9680000000001Q493.888 647.616 492.384 647.2Q490.88 646.784 489.792 646.784Q486.08 646.784 483.808 649.408Q481.536 652.032 481.536 657.44Q481.536 662.848 483.87199999999996 665.472Q486.20799999999997 668.096 489.792 668.096Q491.26399999999995 668.096 493.08799999999997 667.6800000000001Q494.912 667.264 495.67999999999995 666.496Q495.808 666.368 496.192 666.368Q496.57599999999996 666.368 497.63199999999995 667.808Q498.688 669.248 499.58399999999995 671.5840000000001Q500.47999999999996 673.92 500.47999999999996 675.2Q500.47999999999996 677.696 496.64 679.168Q492.79999999999995 680.64 487.55199999999996 680.64Q479.104 680.64 473.664 674.688Q468.224 668.736 468.224 657.8879999999999Q468.224 647.04 473.82399999999996 640.832Q479.424 634.624 487.808 634.624Q492.47999999999996 634.624 496.0319999999999 635.936Q499.58399999999995 637.248 499.58399999999995 639.488Q499.58399999999995 641.728 497.8879999999999 645.024Q496.19199999999995 648.32 495.03999999999996 648.32Z" fill="#D4A017"/>
<path d="M511.87199999999996 676.2239999999999Q507.87199999999996 671.808 507.87199999999996 664.0Q507.87199999999996 656.192 511.87199999999996 651.7760000000001Q515.872 647.36 522.656 647.36Q529.4399999999999 647.36 533.4079999999999 651.7760000000001Q537.376 656.192 537.376 664.0Q537.376 671.808 533.4079999999999 676.2239999999999Q529.4399999999999 680.64 522.656 680.64Q515.872 680.64 511.87199999999996 676.2239999999999ZM522.688 658.048Q519.072 658.048 519.072 663.9359999999999Q519.072 669.824 522.688 669.824Q526.304 669.824 526.304 663.9359999999999Q526.304 658.048 522.688 658.048Z" fill="#D4A017"/>
<path d="M556.4159999999999 680.192Q556.4159999999999 680.64 550.3679999999999 680.64Q544.3199999999999 680.64 544.3199999999999 680.256V668.736Q544.3199999999999 668.16 550.3679999999999 668.16Q556.4159999999999 668.16 556.4159999999999 668.48Z" fill="#D4A017"/>
        
</svg>
