<?xml version="1.0" standalone="no"?>
<!DOCTYPE svg PUBLIC "-//W3C//DTD SVG 20010904//EN"
 "http://www.w3.org/TR/2001/REC-SVG-20010904/DTD/svg10.dtd">
<svg version="1.0" xmlns="http://www.w3.org/2000/svg"
 width="1800.000000pt" height="500.000000pt" viewBox="0 0 1800.000000 500.000000"
 preserveAspectRatio="xMidYMid meet">
<metadata>
Created by potrace 1.16, written by Peter Selinger 2001-2019
</metadata>
<g transform="translate(0.000000,500.000000) scale(0.100000,-0.100000)"
fill="#000000" stroke="none">
<path d="M1307 4260 c-227 -28 -404 -114 -543 -264 -178 -190 -245 -419 -198
-667 10 -55 15 -118 12 -184 -4 -93 -8 -109 -55 -225 -84 -208 -107 -342 -84
-501 27 -184 109 -336 262 -485 103 -102 172 -199 213 -299 133 -328 269 -481
532 -601 197 -90 384 -124 699 -128 267 -3 296 -10 408 -97 96 -74 142 -81
230 -37 35 17 521 379 680 506 127 100 173 206 165 376 -8 161 -59 265 -207
419 -140 147 -203 259 -237 426 -22 111 -15 273 21 441 87 417 8 772 -229
1018 -116 121 -233 194 -396 247 -112 37 -325 45 -500 21 -161 -23 -277 -20
-427 8 -154 29 -255 37 -346 26z m344 -85 c152 -29 272 -32 417 -11 278 41
449 23 627 -66 250 -125 416 -353 471 -644 24 -129 15 -347 -20 -514 -49 -230
-46 -397 13 -567 41 -120 96 -204 214 -332 126 -135 172 -215 193 -332 17 -99
7 -188 -31 -264 -37 -78 -45 -81 -107 -57 -133 53 -273 56 -369 9 -137 -67
-228 -203 -304 -453 -20 -65 -41 -124 -47 -132 -18 -21 -55 -6 -131 50 -38 28
-99 62 -135 76 -63 23 -80 25 -302 27 -187 3 -258 7 -345 24 -209 39 -372 106
-513 210 -136 101 -215 213 -300 424 -57 141 -95 197 -219 324 -208 212 -267
342 -267 583 1 145 12 196 85 378 49 123 74 235 65 296 -3 17 -13 75 -22 130
-74 435 216 808 676 866 90 12 196 4 351 -25z m1718 -2810 c45 -14 81 -28 81
-30 0 -10 -614 -471 -658 -494 -21 -11 -23 -11 -19 6 3 10 15 52 26 94 12 41
32 103 45 137 103 261 287 362 525 287z"/>
<path d="M1276 3993 c-281 -60 -455 -254 -456 -508 0 -39 7 -98 16 -130 45
-174 175 -278 454 -365 243 -75 260 -83 260 -126 0 -35 -42 -57 -108 -57 -72
0 -112 20 -151 76 -96 140 -235 181 -377 112 -96 -47 -147 -135 -147 -252 1
-195 168 -359 440 -429 79 -21 123 -26 228 -27 72 0 139 2 151 6 19 7 22 3 27
-45 7 -72 46 -157 99 -214 85 -93 198 -150 428 -214 170 -48 213 -75 195 -123
-15 -38 -135 -53 -193 -23 -16 8 -47 40 -70 70 -91 120 -198 160 -329 121 -60
-18 -135 -80 -166 -139 -34 -64 -31 -191 5 -269 33 -69 121 -160 198 -204 192
-110 477 -141 698 -77 120 35 196 78 273 154 102 101 149 216 149 365 0 145
-44 249 -143 341 -76 71 -185 122 -369 175 -82 23 -148 46 -148 51 0 4 6 8 13
8 7 0 35 14 61 31 l48 30 58 -60 c46 -49 67 -62 114 -76 94 -27 181 -7 254 59
56 51 85 116 85 191 1 109 -56 197 -176 276 -53 34 -56 39 -38 48 11 6 26 11
35 11 41 0 61 64 30 95 -14 14 -39 16 -172 13 -148 -3 -155 -4 -170 -25 -11
-18 -24 -23 -55 -23 l-40 0 47 37 c141 109 134 288 -13 365 -87 46 -224 38
-306 -17 l-37 -26 -54 36 c-82 55 -164 89 -323 135 -216 62 -241 75 -241 124
0 27 58 49 117 44 53 -5 56 -7 131 -85 86 -91 120 -107 217 -107 106 1 202 68
240 168 23 59 17 155 -13 216 -60 125 -224 228 -420 266 -94 18 -267 17 -356
-3z m1035 -789 c54 -32 79 -77 79 -143 0 -87 -35 -128 -185 -216 -15 -9 -1
-30 104 -163 67 -83 126 -152 131 -152 16 0 70 125 77 177 7 66 -11 99 -62
109 -72 13 -43 24 67 25 62 1 128 2 146 4 41 3 44 -20 3 -28 -42 -9 -64 -37
-106 -138 -21 -50 -52 -112 -70 -139 l-32 -48 39 -46 c75 -87 163 -118 229
-79 33 20 45 13 30 -15 -19 -35 -113 -74 -178 -74 -70 -1 -114 17 -173 70
l-46 40 -39 -29 c-88 -66 -212 -91 -315 -65 -89 22 -139 59 -172 125 -46 90
-36 185 29 269 22 29 123 104 154 114 5 2 -6 35 -26 73 -41 81 -52 143 -35
204 14 54 72 117 125 137 56 20 181 14 226 -12z"/>
<path d="M2132 3177 c-79 -45 -73 -178 14 -285 l19 -23 38 32 c57 47 80 100
75 172 -4 52 -9 64 -36 88 -35 31 -72 36 -110 16z m88 -54 c18 -23 21 -36 16
-77 -6 -51 -49 -121 -68 -110 -19 12 -48 89 -48 132 0 75 58 107 100 55z"/>
<path d="M2016 2729 c-46 -51 -56 -76 -56 -147 1 -134 110 -244 228 -228 50 7
132 44 139 63 3 7 -26 49 -64 95 -38 46 -99 122 -137 171 -37 48 -69 87 -71
87 -1 0 -19 -18 -39 -41z"/>
<path d="M3146 1874 c-38 -39 -36 -93 5 -128 58 -49 134 -20 146 56 5 32 1 41
-25 68 -40 40 -88 41 -126 4z m92 -20 c42 -29 17 -104 -35 -104 -20 0 -53 38
-53 60 0 22 33 60 53 60 7 0 23 -7 35 -16z"/>
<path d="M3079 1651 c-52 -52 -34 -128 35 -151 100 -33 168 117 75 165 -43 23
-77 18 -110 -14z m109 -23 c17 -15 15 -58 -5 -80 -23 -25 -68 -23 -87 4 -22
31 -20 45 9 74 26 25 52 26 83 2z"/>
<path d="M3304 1626 c-21 -33 -15 -65 17 -89 24 -17 30 -18 55 -6 65 32 49
119 -21 119 -26 0 -39 -6 -51 -24z m80 -21 c9 -24 -4 -45 -29 -45 -25 0 -38
21 -29 45 4 8 16 15 29 15 13 0 25 -7 29 -15z"/>
<path d="M8290 2650 l0 -50 70 0 70 0 0 50 0 50 -70 0 -70 0 0 -50z"/>
<path d="M9000 2440 l0 -260 75 0 75 0 0 43 c0 33 6 49 24 66 l23 22 39 -65
39 -66 78 0 c42 0 77 3 77 7 0 3 -29 52 -65 108 -36 56 -65 106 -65 110 0 4
30 41 66 81 l66 74 -84 -1 -83 0 -57 -71 -58 -70 0 141 0 141 -75 0 -75 0 0
-260z"/>
<path d="M7575 2677 c-65 -17 -100 -40 -119 -82 -32 -67 -12 -147 45 -183 19
-11 72 -30 119 -42 47 -12 91 -26 98 -32 36 -31 -15 -64 -81 -52 -32 5 -42 12
-50 35 -11 28 -13 29 -84 29 -79 0 -80 0 -63 -61 22 -80 129 -127 263 -116
122 10 187 68 187 165 0 86 -46 127 -179 156 -41 9 -82 21 -93 27 -40 22 -8
59 51 59 29 0 61 -22 61 -41 0 -5 34 -9 76 -9 l77 0 -6 30 c-4 16 -13 40 -22
53 -37 57 -179 90 -280 64z"/>
<path d="M11495 2677 c-65 -17 -100 -40 -119 -82 -32 -67 -12 -147 45 -183 19
-11 72 -30 119 -42 47 -12 91 -26 98 -32 36 -31 -15 -64 -81 -52 -32 5 -42 12
-50 35 -11 28 -13 29 -84 29 -79 0 -80 0 -63 -61 22 -80 129 -127 263 -116
122 10 187 68 187 165 0 86 -46 127 -179 156 -41 9 -82 21 -93 27 -40 22 -8
59 51 59 29 0 61 -22 61 -41 0 -5 34 -9 76 -9 l77 0 -6 30 c-4 16 -13 40 -22
53 -37 57 -179 90 -280 64z"/>
<path d="M10880 2671 c-80 -26 -130 -73 -130 -123 0 -38 25 -85 50 -93 18 -6
16 -10 -20 -44 -36 -34 -40 -42 -40 -89 0 -90 67 -139 205 -149 174 -13 275
52 275 177 l0 40 50 0 50 0 0 45 0 45 -115 0 -115 0 0 -83 c0 -107 -13 -122
-105 -122 -70 0 -105 20 -105 61 0 38 26 54 86 54 l54 0 0 45 0 45 -47 0 c-53
0 -66 6 -76 33 -5 12 2 26 19 44 23 23 31 25 86 21 47 -3 65 -9 79 -26 14 -18
28 -22 78 -22 70 0 76 10 41 68 -31 50 -96 75 -205 79 -49 1 -101 -1 -115 -6z"/>
<path d="M13702 2662 c-103 -37 -146 -106 -145 -237 0 -120 33 -183 118 -228
60 -32 202 -31 268 1 52 26 90 80 101 145 l7 37 -76 0 c-69 0 -75 -2 -75 -20
0 -63 -106 -94 -154 -47 -46 46 -43 191 5 230 31 25 91 22 116 -5 11 -13 24
-33 28 -45 6 -21 12 -23 81 -23 l75 0 -7 38 c-19 104 -94 162 -219 169 -51 3
-85 -2 -123 -15z"/>
<path d="M8025 2658 c-2 -7 -9 -32 -15 -55 -10 -38 -14 -43 -40 -43 -29 0 -30
-1 -30 -50 0 -47 2 -50 25 -50 25 0 25 0 25 -99 0 -109 10 -150 42 -170 29
-18 127 -25 161 -12 25 10 28 15 25 48 -3 35 -6 38 -38 43 l-35 5 -3 93 -3 92
41 0 41 0 -3 48 c-3 47 -3 47 -40 50 l-38 3 0 55 0 54 -55 0 c-36 0 -57 -5
-60 -12z"/>
<path d="M8659 2561 c-96 -20 -149 -86 -149 -188 0 -34 5 -74 11 -90 28 -76
123 -121 231 -109 100 10 156 50 172 124 l8 32 -66 0 c-61 0 -67 -2 -75 -24
-11 -27 -29 -36 -76 -36 -47 0 -65 29 -65 102 0 67 22 98 68 98 32 0 72 -25
72 -46 0 -11 16 -14 70 -14 78 0 80 2 51 66 -14 31 -30 46 -62 62 -50 23 -137
34 -190 23z"/>
<path d="M9600 2559 c-86 -26 -130 -89 -130 -188 0 -76 18 -121 61 -154 95
-71 282 -59 336 22 39 59 33 71 -38 71 -53 0 -65 -4 -85 -25 -43 -46 -134 -23
-134 35 0 19 7 20 140 20 l140 0 0 44 c0 76 -31 130 -93 163 -36 18 -152 26
-197 12z m130 -99 c38 -38 27 -50 -50 -50 -79 0 -90 13 -44 49 34 26 68 27 94
1z"/>
<path d="M10134 2551 c-18 -11 -34 -25 -37 -33 -2 -7 -8 -1 -12 15 -7 26 -10
27 -66 27 l-59 0 0 -190 0 -190 75 0 75 0 0 110 c0 132 10 150 85 150 l45 0 0
59 c0 44 -4 60 -16 65 -28 11 -58 6 -90 -13z"/>
<path d="M10385 2561 c-76 -20 -108 -55 -108 -118 0 -66 36 -96 142 -119 93
-20 106 -26 98 -48 -4 -11 -19 -16 -46 -16 -49 0 -71 8 -71 26 0 11 -17 14
-69 14 -67 0 -69 -1 -64 -22 7 -29 40 -66 76 -84 45 -24 145 -29 209 -10 71
20 98 52 98 113 0 80 -30 104 -152 128 -73 14 -95 25 -84 44 11 17 86 14 92
-4 5 -11 22 -15 70 -15 60 0 64 1 64 23 0 24 -28 56 -68 76 -29 15 -147 23
-187 12z"/>
<path d="M12019 2561 c-96 -20 -149 -86 -149 -188 0 -108 37 -163 129 -190
101 -29 208 -2 259 65 23 30 27 47 30 111 2 65 -1 82 -20 116 -14 23 -41 49
-63 62 -45 24 -132 35 -186 24z m111 -111 c15 -15 20 -33 20 -78 0 -76 -18
-102 -70 -102 -52 0 -70 26 -70 102 0 68 22 98 70 98 17 0 39 -9 50 -20z"/>
<path d="M12465 2561 c-61 -15 -99 -47 -110 -93 l-7 -28 69 0 c56 0 72 4 86
20 30 35 87 21 101 -26 6 -20 2 -21 -76 -28 -104 -9 -147 -29 -172 -80 -24
-49 -13 -100 27 -130 40 -29 147 -30 197 -1 33 20 36 20 52 3 22 -22 82 -33
127 -22 34 8 36 11 36 49 0 33 -4 41 -22 43 -20 3 -21 9 -25 112 -3 99 -5 111
-27 134 -43 46 -166 68 -256 47z m140 -248 c-3 -15 -14 -33 -23 -40 -26 -19
-80 -16 -91 5 -17 33 21 61 83 62 37 0 38 -1 31 -27z"/>
<path d="M13040 2559 c-14 -5 -35 -19 -46 -30 l-22 -20 -6 25 c-6 24 -10 26
-66 26 l-60 0 0 -260 0 -260 75 0 75 0 0 85 0 86 31 -17 c43 -22 126 -20 158
4 52 39 66 69 70 153 4 96 -16 158 -59 189 -34 24 -114 34 -150 19z m60 -118
c16 -32 12 -122 -7 -143 -21 -24 -65 -23 -88 2 -20 22 -24 105 -6 139 16 29
85 30 101 2z"/>
<path d="M14259 2561 c-96 -20 -149 -86 -149 -188 0 -108 37 -163 129 -190
101 -29 208 -2 259 65 23 30 27 47 30 111 2 65 -1 82 -20 116 -14 23 -41 49
-63 62 -45 24 -132 35 -186 24z m111 -111 c15 -15 20 -33 20 -78 0 -76 -18
-102 -70 -102 -52 0 -70 26 -70 102 0 68 22 98 70 98 17 0 39 -9 50 -20z"/>
<path d="M8290 2370 l0 -190 70 0 70 0 0 190 0 190 -70 0 -70 0 0 -190z"/>
<path d="M14600 2250 l0 -70 80 0 80 0 0 70 0 70 -80 0 -80 0 0 -70z"/>
<path d="M1180 1006 c0 -3 9 -10 20 -16 11 -6 20 -8 20 -6 0 3 -9 10 -20 16
-11 6 -20 8 -20 6z"/>
<path d="M1423 870 c62 -33 289 -94 392 -105 33 -4 71 -9 85 -12 14 -2 123 -6
242 -8 241 -4 238 -3 367 -85 36 -22 69 -40 75 -40 6 0 -12 13 -40 28 -28 16
-66 40 -85 54 -70 52 -104 58 -314 58 -279 0 -484 31 -676 103 -104 39 -107
40 -46 7z"/>
<path d="M2820 645 c-14 -8 -20 -14 -14 -15 5 0 19 7 30 15 24 18 16 19 -16 0z"/>
<path d="M2685 621 c-86 -6 -88 -7 -43 -15 48 -8 113 -2 138 14 8 5 11 9 5 8
-5 -1 -50 -4 -100 -7z"/>
</g>
</svg>
