<svg xmlns="http://www.w3.org/2000/svg" viewBox="0 0 1024 1024" width="1024" height="1024">


    <rect width="1024" height="1024" fill="#F4E8D0"/>
    <rect x="64" y="200" width="896" height="340" rx="28" fill="#3BB4F0"/>
    <line x1="183.8" y1="393.8" x2="122.2" y2="365.1" stroke="#F5C518" stroke-width="3.4" stroke-linecap="round"/>
<line x1="201.0" y1="371.8" x2="158.2" y2="319.0" stroke="#F5C518" stroke-width="3.4" stroke-linecap="round"/>
<line x1="226.1" y1="359.6" x2="210.8" y2="293.3" stroke="#F5C518" stroke-width="3.4" stroke-linecap="round"/>
<line x1="253.9" y1="359.6" x2="269.2" y2="293.3" stroke="#F5C518" stroke-width="3.4" stroke-linecap="round"/>
<line x1="279.0" y1="371.8" x2="321.8" y2="319.0" stroke="#F5C518" stroke-width="3.4" stroke-linecap="round"/>
<line x1="296.2" y1="393.8" x2="357.8" y2="365.1" stroke="#F5C518" stroke-width="3.4" stroke-linecap="round"/>
<polygon points="185.2,398.9 106.5,384.3 103.5,398.4 181.4,416.9" fill="#E9897E" stroke="#F5C518" stroke-width="4.0" stroke-linejoin="round"/>
<polygon points="200.0,377.0 135.7,329.4 126.8,340.7 188.6,391.5" fill="#E9897E" stroke="#F5C518" stroke-width="4.0" stroke-linejoin="round"/>
<polygon points="222.8,363.8 186.0,292.8 173.0,299.1 206.3,371.9" fill="#E9897E" stroke="#F5C518" stroke-width="4.0" stroke-linejoin="round"/>
<polygon points="249.2,362.0 247.2,282.0 232.8,282.0 230.8,362.0" fill="#E9897E" stroke="#F5C518" stroke-width="4.0" stroke-linejoin="round"/>
<polygon points="273.7,371.9 307.0,299.1 294.0,292.8 257.2,363.8" fill="#E9897E" stroke="#F5C518" stroke-width="4.0" stroke-linejoin="round"/>
<polygon points="291.4,391.5 353.2,340.7 344.3,329.4 280.0,377.0" fill="#E9897E" stroke="#F5C518" stroke-width="4.0" stroke-linejoin="round"/>
<polygon points="298.6,416.9 376.5,398.4 373.5,384.3 294.8,398.9" fill="#E9897E" stroke="#F5C518" stroke-width="4.0" stroke-linejoin="round"/>
<defs><clipPath id="hubclip-240-420-520"><path d="M 188.0,420.0 A 52,52 0 0 1 292.0,420.0 Z"/></clipPath></defs>
<path d="M 188.0,420.0 A 52,52 0 0 1 292.0,420.0 Z" fill="#F5C518"/>
<circle cx="240.0" cy="420.0" r="9.3" fill="#3BB4F0" clip-path="url(#hubclip-240-420-520)"/>
<path d="M 230.7,420.0 A 9.333333333333332,9.333333333333332 0 0 1 249.3,420.0" fill="none" stroke="#F5C518" stroke-width="2.2"/>
    <line x1="120" y1="420" x2="370" y2="420" stroke="#142033" stroke-width="5" stroke-linecap="round"/>
    
    <circle cx="420.0" cy="355.0" r="51.9" fill="none" stroke="#20C4B0" stroke-width="7"/>
    <circle cx="420.0" cy="355.0" r="44.0" fill="#FF6B4A"/>
    <path d="M398.903 343.848H417.807V349.458H406.41700000000003V353.47H416.209V358.842H406.41700000000003V367.24H398.903Z" fill="#FFF8F0"/>
<path d="M441.743 350.648V351.056H434.705V350.92Q434.705 349.90000000000003 433.957 349.22Q433.209 348.54 431.679 348.54Q430.183 348.54 429.384 348.98199999999997Q428.585 349.424 428.585 350.07Q428.585 350.988 429.673 351.43Q430.761 351.872 433.175 352.348Q435.997 352.926 437.81600000000003 353.555Q439.635 354.184 440.995 355.612Q442.355 357.04 442.389 359.488Q442.389 363.636 439.584 365.64200000000005Q436.779 367.648 432.087 367.648Q426.613 367.648 423.57 365.812Q420.527 363.976 420.527 359.318H427.633Q427.633 361.086 428.551 361.68100000000004Q429.469 362.276 431.407 362.276Q432.835 362.276 433.77 361.97Q434.705 361.664 434.705 360.712Q434.705 359.862 433.668 359.437Q432.631 359.012 430.285 358.536Q427.429 357.92400000000004 425.55899999999997 357.261Q423.689 356.598 422.295 355.068Q420.901 353.538 420.901 350.92Q420.901 347.07800000000003 423.876 345.259Q426.851 343.44 431.407 343.44Q435.895 343.44 438.78499999999997 345.259Q441.675 347.07800000000003 441.743 350.648Z" fill="#FFF8F0"/>
    
    <path d="M537.8399999999999 334.0H561.1199999999999V342.0H546.64V357.6H558.0V365.6H546.64V390.0H537.8399999999999Z" fill="#142033"/>
<path d="M569.3599999999999 334.0H582.4Q589.1999999999999 334.0 592.3199999999999 337.15999999999997Q595.4399999999999 340.32 595.4399999999999 346.88V350.32Q595.4399999999999 359.04 589.68 361.36V361.52Q592.8799999999999 362.48 594.1999999999999 365.44Q595.52 368.4 595.52 373.36V383.2Q595.52 385.6 595.68 387.08000000000004Q595.8399999999999 388.56 596.4799999999999 390.0H587.52Q587.04 388.64 586.8799999999999 387.44Q586.7199999999999 386.24 586.7199999999999 383.12V372.88Q586.7199999999999 369.04 585.4799999999999 367.52Q584.2399999999999 366.0 581.1999999999999 366.0H578.16V390.0H569.3599999999999ZM581.3599999999999 358.0Q583.9999999999999 358.0 585.3199999999999 356.64Q586.6399999999999 355.28 586.6399999999999 352.08V347.76Q586.6399999999999 344.72 585.56 343.36Q584.4799999999999 342.0 582.16 342.0H578.16V358.0Z" fill="#142033"/>
<path d="M605.5999999999999 334.0H629.5999999999999V342.0H614.4V356.8H626.4799999999999V364.8H614.4V382.0H629.5999999999999V390.0H605.5999999999999Z" fill="#142033"/>
<path d="M637.1199999999999 376.72V373.52H645.4399999999999V377.36Q645.4399999999999 382.8 649.9999999999999 382.8Q652.2399999999999 382.8 653.3999999999999 381.48Q654.56 380.16 654.56 377.2Q654.56 373.68 652.9599999999999 371.0Q651.3599999999999 368.32 647.0399999999998 364.56Q641.5999999999999 359.76 639.4399999999998 355.88Q637.2799999999999 352.0 637.2799999999999 347.12Q637.2799999999999 340.48 640.6399999999999 336.84000000000003Q643.9999999999999 333.2 650.3999999999999 333.2Q656.7199999999999 333.2 659.9599999999999 336.84000000000003Q663.1999999999999 340.48 663.1999999999999 347.28V349.6H654.8799999999999V346.72Q654.8799999999999 343.84 653.7599999999999 342.52Q652.6399999999999 341.2 650.4799999999999 341.2Q646.0799999999999 341.2 646.0799999999999 346.56Q646.0799999999999 349.6 647.7199999999999 352.24Q649.3599999999999 354.88 653.68 358.64Q659.1999999999999 363.44 661.28 367.36Q663.3599999999999 371.28 663.3599999999999 376.56Q663.3599999999999 383.44 659.9599999999999 387.12Q656.56 390.8 650.0799999999999 390.8Q643.68 390.8 640.3999999999999 387.15999999999997Q637.1199999999999 383.52 637.1199999999999 376.72Z" fill="#142033"/>
<path d="M672.3999999999999 334.0H681.1999999999999V356.8H690.6399999999999V334.0H699.4399999999999V390.0H690.6399999999999V364.8H681.1999999999999V390.0H672.3999999999999Z" fill="#142033"/>
<path d="M738.8799999999999 376.72V373.52H747.1999999999999V377.36Q747.1999999999999 382.8 751.7599999999999 382.8Q753.9999999999999 382.8 755.1599999999999 381.48Q756.3199999999999 380.16 756.3199999999999 377.2Q756.3199999999999 373.68 754.7199999999999 371.0Q753.1199999999999 368.32 748.7999999999998 364.56Q743.3599999999999 359.76 741.1999999999998 355.88Q739.0399999999998 352.0 739.0399999999998 347.12Q739.0399999999998 340.48 742.3999999999999 336.84000000000003Q745.7599999999999 333.2 752.1599999999999 333.2Q758.4799999999999 333.2 761.7199999999999 336.84000000000003Q764.9599999999999 340.48 764.9599999999999 347.28V349.6H756.6399999999999V346.72Q756.6399999999999 343.84 755.5199999999999 342.52Q754.3999999999999 341.2 752.2399999999999 341.2Q747.8399999999999 341.2 747.8399999999999 346.56Q747.8399999999999 349.6 749.4799999999999 352.24Q751.1199999999999 354.88 755.4399999999999 358.64Q760.9599999999999 363.44 763.04 367.36Q765.1199999999999 371.28 765.1199999999999 376.56Q765.1199999999999 383.44 761.7199999999999 387.12Q758.3199999999999 390.8 751.8399999999999 390.8Q745.4399999999999 390.8 742.1599999999999 387.15999999999997Q738.8799999999999 383.52 738.8799999999999 376.72Z" fill="#142033"/>
<path d="M781.0399999999998 342.0H771.8399999999999V334.0H799.0399999999998V342.0H789.8399999999999V390.0H781.0399999999998Z" fill="#142033"/>
<path d="M814.0799999999999 334.0H825.9999999999999L835.1199999999999 390.0H826.3199999999999L824.7199999999999 378.88V379.04H814.7199999999999L813.1199999999999 390.0H804.9599999999999ZM823.6799999999998 371.44 819.7599999999999 343.76H819.5999999999999L815.7599999999999 371.44Z" fill="#142033"/>
<path d="M843.3599999999999 334.0H856.4Q863.1999999999999 334.0 866.3199999999999 337.15999999999997Q869.4399999999999 340.32 869.4399999999999 346.88V350.32Q869.4399999999999 359.04 863.68 361.36V361.52Q866.8799999999999 362.48 868.1999999999999 365.44Q869.52 368.4 869.52 373.36V383.2Q869.52 385.6 869.68 387.08000000000004Q869.8399999999999 388.56 870.4799999999999 390.0H861.52Q861.04 388.64 860.8799999999999 387.44Q860.7199999999999 386.24 860.7199999999999 383.12V372.88Q860.7199999999999 369.04 859.4799999999999 367.52Q858.2399999999999 366.0 855.1999999999999 366.0H852.16V390.0H843.3599999999999ZM855.3599999999999 358.0Q857.9999999999999 358.0 859.3199999999999 356.64Q860.6399999999999 355.28 860.6399999999999 352.08V347.76Q860.6399999999999 344.72 859.56 343.36Q858.4799999999999 342.0 856.16 342.0H852.16V358.0Z" fill="#142033"/>
<path d="M886.4799999999999 342.0H877.28V334.0H904.4799999999999V342.0H895.28V390.0H886.4799999999999Z" fill="#142033"/>
    <path d="M694.528 448.952V438.584Q694.528 435.736 696.272 434.03999999999996Q698.0160000000001 432.344 700.8960000000001 432.344Q703.8080000000001 432.344 705.5520000000001 434.03999999999996Q707.296 435.736 707.296 438.584V438.936Q707.296 439.096 707.184 439.20799999999997Q707.072 439.32 706.912 439.32L703.168 439.48Q702.7840000000001 439.48 702.7840000000001 439.128V438.296Q702.7840000000001 437.368 702.2720000000002 436.79200000000003Q701.7600000000001 436.216 700.8960000000001 436.216Q700.0640000000001 436.216 699.5520000000001 436.79200000000003Q699.0400000000001 437.368 699.0400000000001 438.296V449.336Q699.0400000000001 450.264 699.5520000000001 450.824Q700.0640000000001 451.384 700.8960000000001 451.384Q701.7600000000001 451.384 702.2720000000002 450.824Q702.7840000000001 450.264 702.7840000000001 449.336V448.472Q702.7840000000001 448.312 702.8960000000001 448.20000000000005Q703.008 448.088 703.168 448.088L706.912 448.248Q707.072 448.248 707.184 448.36Q707.296 448.472 707.296 448.632V448.952Q707.296 451.832 705.5360000000001 453.544Q703.7760000000001 455.256 700.8960000000001 455.256Q698.0160000000001 455.256 696.272 453.544Q694.528 451.832 694.528 448.952Z" fill="#FF6B4A"/>
<path d="M717.376 448.92V438.68Q717.376 435.8 719.136 434.072Q720.896 432.344 723.84 432.344Q726.784 432.344 728.56 434.072Q730.336 435.8 730.336 438.68V448.92Q730.336 451.8 728.56 453.528Q726.784 455.256 723.84 455.256Q720.896 455.256 719.136 453.528Q717.376 451.8 717.376 448.92ZM725.824 449.112V438.488Q725.824 437.464 725.28 436.84000000000003Q724.736 436.216 723.84 436.216Q722.944 436.216 722.4159999999999 436.84000000000003Q721.888 437.464 721.888 438.488V449.112Q721.888 450.136 722.4159999999999 450.76Q722.944 451.384 723.84 451.384Q724.736 451.384 725.28 450.76Q725.824 450.136 725.824 449.112Z" fill="#FF6B4A"/>
<path d="M740.48 452.6Q740.48 451.48 741.184 450.776Q741.888 450.072 743.008 450.072Q744.128 450.072 744.8320000000001 450.776Q745.5360000000001 451.48 745.5360000000001 452.6Q745.5360000000001 453.688 744.816 454.408Q744.096 455.12800000000004 743.008 455.12800000000004Q741.9200000000001 455.12800000000004 741.2 454.408Q740.48 453.688 740.48 452.6Z" fill="#FF6B4A"/>
    <path d="M284.30000000000007 610.0H313.40000000000003V620.0H295.30000000000007V639.5H309.50000000000006V649.5H295.30000000000007V680.0H284.30000000000007Z" fill="#142033"/>
<path d="M323.70000000000005 610.0H340.0Q348.5 610.0 352.4 613.95Q356.3 617.9 356.3 626.1V630.4Q356.3 641.3 349.1 644.2V644.4Q353.1 645.6 354.75 649.3Q356.40000000000003 653.0 356.40000000000003 659.2V671.5Q356.40000000000003 674.5 356.6 676.35Q356.8 678.2 357.6 680.0H346.40000000000003Q345.8 678.3 345.6 676.8Q345.40000000000003 675.3 345.40000000000003 671.4V658.6Q345.40000000000003 653.8 343.85 651.9Q342.3 650.0 338.5 650.0H334.70000000000005V680.0H323.70000000000005ZM338.70000000000005 640.0Q342.0 640.0 343.65 638.3Q345.3 636.6 345.3 632.6V627.2Q345.3 623.4 343.95000000000005 621.7Q342.6 620.0 339.70000000000005 620.0H334.70000000000005V640.0Z" fill="#142033"/>
<path d="M369.00000000000006 610.0H399.00000000000006V620.0H380.00000000000006V638.5H395.1V648.5H380.00000000000006V670.0H399.00000000000006V680.0H369.00000000000006Z" fill="#142033"/>
<path d="M408.40000000000003 663.4V659.4H418.80000000000007V664.2Q418.80000000000007 671.0 424.50000000000006 671.0Q427.30000000000007 671.0 428.75000000000006 669.35Q430.20000000000005 667.7 430.20000000000005 664.0Q430.20000000000005 659.6 428.20000000000005 656.25Q426.20000000000005 652.9 420.80000000000007 648.2Q414.00000000000006 642.2 411.30000000000007 637.35Q408.6 632.5 408.6 626.4Q408.6 618.1 412.80000000000007 613.55Q417.00000000000006 609.0 425.00000000000006 609.0Q432.90000000000003 609.0 436.95000000000005 613.55Q441.00000000000006 618.1 441.00000000000006 626.6V629.5H430.6V625.9Q430.6 622.3 429.20000000000005 620.65Q427.80000000000007 619.0 425.1 619.0Q419.6 619.0 419.6 625.7Q419.6 629.5 421.65000000000003 632.8Q423.70000000000005 636.1 429.1 640.8Q436.00000000000006 646.8 438.6 651.7Q441.20000000000005 656.6 441.20000000000005 663.2Q441.20000000000005 671.8 436.95000000000005 676.4Q432.70000000000005 681.0 424.6 681.0Q416.6 681.0 412.5 676.45Q408.40000000000003 671.9 408.40000000000003 663.4Z" fill="#142033"/>
<path d="M452.50000000000006 610.0H463.50000000000006V638.5H475.3V610.0H486.3V680.0H475.3V648.5H463.50000000000006V680.0H452.50000000000006Z" fill="#142033"/>
<path d="M535.6000000000001 663.4V659.4H546.0000000000001V664.2Q546.0000000000001 671.0 551.7 671.0Q554.5000000000001 671.0 555.95 669.35Q557.4000000000001 667.7 557.4000000000001 664.0Q557.4000000000001 659.6 555.4000000000001 656.25Q553.4000000000001 652.9 548.0000000000001 648.2Q541.2 642.2 538.5 637.35Q535.8000000000001 632.5 535.8000000000001 626.4Q535.8000000000001 618.1 540.0 613.55Q544.2 609.0 552.2 609.0Q560.1000000000001 609.0 564.1500000000001 613.55Q568.2 618.1 568.2 626.6V629.5H557.8000000000001V625.9Q557.8000000000001 622.3 556.4000000000001 620.65Q555.0000000000001 619.0 552.3000000000001 619.0Q546.8000000000001 619.0 546.8000000000001 625.7Q546.8000000000001 629.5 548.8500000000001 632.8Q550.9000000000001 636.1 556.3000000000001 640.8Q563.2 646.8 565.8000000000001 651.7Q568.4000000000001 656.6 568.4000000000001 663.2Q568.4000000000001 671.8 564.1500000000001 676.4Q559.9000000000001 681.0 551.8000000000001 681.0Q543.8000000000001 681.0 539.7 676.45Q535.6000000000001 671.9 535.6000000000001 663.4Z" fill="#142033"/>
<path d="M588.3000000000002 620.0H576.8000000000002V610.0H610.8000000000002V620.0H599.3000000000002V680.0H588.3000000000002Z" fill="#142033"/>
<path d="M629.6000000000001 610.0H644.5000000000001L655.9000000000001 680.0H644.9000000000001L642.9000000000001 666.1V666.3H630.4000000000001L628.4000000000001 680.0H618.2000000000002ZM641.6000000000001 656.8 636.7000000000002 622.2H636.5000000000001L631.7000000000002 656.8Z" fill="#142033"/>
<path d="M666.2000000000002 610.0H682.5000000000001Q691.0000000000001 610.0 694.9000000000001 613.95Q698.8000000000002 617.9 698.8000000000002 626.1V630.4Q698.8000000000002 641.3 691.6000000000001 644.2V644.4Q695.6000000000001 645.6 697.2500000000001 649.3Q698.9000000000001 653.0 698.9000000000001 659.2V671.5Q698.9000000000001 674.5 699.1000000000001 676.35Q699.3000000000002 678.2 700.1000000000001 680.0H688.9000000000001Q688.3000000000002 678.3 688.1000000000001 676.8Q687.9000000000001 675.3 687.9000000000001 671.4V658.6Q687.9000000000001 653.8 686.3500000000001 651.9Q684.8000000000002 650.0 681.0000000000001 650.0H677.2000000000002V680.0H666.2000000000002ZM681.2000000000002 640.0Q684.5000000000001 640.0 686.1500000000001 638.3Q687.8000000000002 636.6 687.8000000000002 632.6V627.2Q687.8000000000002 623.4 686.4500000000002 621.7Q685.1000000000001 620.0 682.2000000000002 620.0H677.2000000000002V640.0Z" fill="#142033"/>
<path d="M720.1000000000001 620.0H708.6000000000001V610.0H742.6000000000001V620.0H731.1000000000001V680.0H720.1000000000001Z" fill="#142033"/>
    <path d="M483.25199999999995 750.818V738.506Q483.25199999999995 735.124 485.323 733.11Q487.394 731.096 490.81399999999996 731.096Q494.272 731.096 496.34299999999996 733.11Q498.414 735.124 498.414 738.506V738.924Q498.414 739.114 498.28099999999995 739.2470000000001Q498.14799999999997 739.38 497.95799999999997 739.38L493.512 739.57Q493.056 739.57 493.056 739.152V738.164Q493.056 737.062 492.448 736.3779999999999Q491.84 735.694 490.81399999999996 735.694Q489.82599999999996 735.694 489.21799999999996 736.3779999999999Q488.60999999999996 737.062 488.60999999999996 738.164V751.274Q488.60999999999996 752.376 489.21799999999996 753.0409999999999Q489.82599999999996 753.706 490.81399999999996 753.706Q491.84 753.706 492.448 753.0409999999999Q493.056 752.376 493.056 751.274V750.248Q493.056 750.058 493.18899999999996 749.925Q493.322 749.792 493.512 749.792L497.95799999999997 749.982Q498.14799999999997 749.982 498.28099999999995 750.115Q498.414 750.248 498.414 750.438V750.818Q498.414 754.238 496.32399999999996 756.271Q494.234 758.304 490.81399999999996 758.304Q487.394 758.304 485.323 756.271Q483.25199999999995 754.238 483.25199999999995 750.818Z" fill="#FF6B4A"/>
<path d="M508.88399999999996 750.78V738.62Q508.88399999999996 735.2 510.97399999999993 733.148Q513.064 731.096 516.56 731.096Q520.056 731.096 522.165 733.148Q524.274 735.2 524.274 738.62V750.78Q524.274 754.2 522.165 756.252Q520.056 758.304 516.56 758.304Q513.064 758.304 510.97399999999993 756.252Q508.88399999999996 754.2 508.88399999999996 750.78ZM518.9159999999999 751.008V738.392Q518.9159999999999 737.176 518.27 736.435Q517.624 735.694 516.56 735.694Q515.496 735.694 514.8689999999999 736.435Q514.242 737.176 514.242 738.392V751.008Q514.242 752.224 514.8689999999999 752.965Q515.496 753.706 516.56 753.706Q517.624 753.706 518.27 752.965Q518.9159999999999 752.224 518.9159999999999 751.008Z" fill="#FF6B4A"/>
<path d="M534.82 755.1500000000001Q534.82 753.82 535.6560000000001 752.984Q536.4920000000001 752.148 537.822 752.148Q539.152 752.148 539.988 752.984Q540.8240000000001 753.82 540.8240000000001 755.1500000000001Q540.8240000000001 756.442 539.969 757.297Q539.114 758.152 537.822 758.152Q536.5300000000001 758.152 535.6750000000001 757.297Q534.82 756.442 534.82 755.1500000000001Z" fill="#FF6B4A"/>
    
</svg>
